<svg width="20" height="25" viewBox="0 0 10 9" fill="none" xmlns="http://www.w3.org/2000/svg">
  <path d="M6.99 5.415h-.391c-1.855 0-3.71.007-5.565-.007a1.4 1.4 0 0 1-.722-.22c-.276-.174-.378-.62-.27-.948.115-.365.351-.606.709-.635.323-.03.654-.015.978-.015H7.05c-.088-.124-.135-.197-.19-.262-.512-.562-1.031-1.117-1.544-1.68-.41-.443-.436-1.005-.073-1.385.357-.372.857-.35 1.255.08a734 734 0 0 1 3.17 3.43c.438.475.445.964.007 1.439a373 373 0 0 1-3.198 3.46c-.398.422-.91.437-1.254.05-.338-.372-.317-.92.06-1.335.574-.628 1.16-1.248 1.747-1.869q-.02-.046-.04-.102" fill="#F14668"/>
</svg>
